<svg width="822" height="172" viewBox="0 0 822 172" xmlns="http://www.w3.org/2000/svg">
<rect width="822" height="172" rx="16" fill="#080808"/>
<rect x="1" y="1" width="820" height="170" rx="15" fill="none" stroke="#222222" stroke-width="1.5"/>
<rect x="36" y="26" width="10" height="10" rx="2" fill="#EDEDED"/>
<rect x="46" y="26" width="10" height="10" rx="2" fill="#EDEDED"/>
<rect x="56" y="26" width="10" height="10" rx="2" fill="#EDEDED"/>
<rect x="66" y="26" width="10" height="10" rx="2" fill="#EDEDED"/>
<rect x="306" y="26" width="10" height="10" rx="2" fill="#EDEDED"/>
<rect x="396" y="26" width="10" height="10" rx="2" fill="#EDEDED"/>
<rect x="26" y="36" width="10" height="10" rx="2" fill="#EDEDED"/>
<rect x="56" y="36" width="10" height="10" rx="2" fill="#EDEDED"/>
<rect x="76" y="36" width="10" height="10" rx="2" fill="#EDEDED"/>
<rect x="96" y="36" width="10" height="10" rx="2" fill="#EDEDED"/>
<rect x="106" y="36" width="10" height="10" rx="2" fill="#EDEDED"/>
<rect x="126" y="36" width="10" height="10" rx="2" fill="#EDEDED"/>
<rect x="146" y="36" width="10" height="10" rx="2" fill="#EDEDED"/>
<rect x="166" y="36" width="10" height="10" rx="2" fill="#EDEDED"/>
<rect x="176" y="36" width="10" height="10" rx="2" fill="#EDEDED"/>
<rect x="216" y="36" width="10" height="10" rx="2" fill="#EDEDED"/>
<rect x="226" y="36" width="10" height="10" rx="2" fill="#EDEDED"/>
<rect x="236" y="36" width="10" height="10" rx="2" fill="#EDEDED"/>
<rect x="256" y="36" width="10" height="10" rx="2" fill="#EDEDED"/>
<rect x="266" y="36" width="10" height="10" rx="2" fill="#EDEDED"/>
<rect x="286" y="36" width="10" height="10" rx="2" fill="#EDEDED"/>
<rect x="296" y="36" width="10" height="10" rx="2" fill="#EDEDED"/>
<rect x="316" y="36" width="10" height="10" rx="2" fill="#EDEDED"/>
<rect x="336" y="36" width="10" height="10" rx="2" fill="#EDEDED"/>
<rect x="346" y="36" width="10" height="10" rx="2" fill="#EDEDED"/>
<rect x="356" y="36" width="10" height="10" rx="2" fill="#EDEDED"/>
<rect x="366" y="36" width="10" height="10" rx="2" fill="#EDEDED"/>
<rect x="376" y="36" width="10" height="10" rx="2" fill="#EDEDED"/>
<rect x="386" y="36" width="10" height="10" rx="2" fill="#EDEDED"/>
<rect x="406" y="36" width="10" height="10" rx="2" fill="#EDEDED"/>
<rect x="416" y="36" width="10" height="10" rx="2" fill="#EDEDED"/>
<rect x="426" y="36" width="10" height="10" rx="2" fill="#EDEDED"/>
<rect x="466" y="36" width="10" height="10" rx="2" fill="#EDEDED"/>
<rect x="476" y="36" width="10" height="10" rx="2" fill="#EDEDED"/>
<rect x="486" y="36" width="10" height="10" rx="2" fill="#EDEDED"/>
<rect x="516" y="36" width="10" height="10" rx="2" fill="#EDEDED"/>
<rect x="556" y="36" width="10" height="10" rx="2" fill="#EDEDED"/>
<rect x="576" y="36" width="10" height="10" rx="2" fill="#EDEDED"/>
<rect x="596" y="36" width="10" height="10" rx="2" fill="#EDEDED"/>
<rect x="606" y="36" width="10" height="10" rx="2" fill="#EDEDED"/>
<rect x="626" y="36" width="10" height="10" rx="2" fill="#EDEDED"/>
<rect x="636" y="36" width="10" height="10" rx="2" fill="#EDEDED"/>
<rect x="646" y="36" width="10" height="10" rx="2" fill="#EDEDED"/>
<rect x="686" y="36" width="10" height="10" rx="2" fill="#EDEDED"/>
<rect x="696" y="36" width="10" height="10" rx="2" fill="#EDEDED"/>
<rect x="716" y="36" width="10" height="10" rx="2" fill="#EDEDED"/>
<rect x="736" y="36" width="10" height="10" rx="2" fill="#EDEDED"/>
<rect x="756" y="36" width="10" height="10" rx="2" fill="#EDEDED"/>
<rect x="766" y="36" width="10" height="10" rx="2" fill="#EDEDED"/>
<rect x="26" y="46" width="10" height="10" rx="2" fill="#EDEDED"/>
<rect x="46" y="46" width="10" height="10" rx="2" fill="#EDEDED"/>
<rect x="56" y="46" width="10" height="10" rx="2" fill="#EDEDED"/>
<rect x="66" y="46" width="10" height="10" rx="2" fill="#EDEDED"/>
<rect x="86" y="46" width="10" height="10" rx="2" fill="#EDEDED"/>
<rect x="106" y="46" width="10" height="10" rx="2" fill="#EDEDED"/>
<rect x="116" y="46" width="10" height="10" rx="2" fill="#EDEDED"/>
<rect x="136" y="46" width="10" height="10" rx="2" fill="#EDEDED"/>
<rect x="156" y="46" width="10" height="10" rx="2" fill="#EDEDED"/>
<rect x="166" y="46" width="10" height="10" rx="2" fill="#EDEDED"/>
<rect x="186" y="46" width="10" height="10" rx="2" fill="#EDEDED"/>
<rect x="206" y="46" width="10" height="10" rx="2" fill="#EDEDED"/>
<rect x="226" y="46" width="10" height="10" rx="2" fill="#EDEDED"/>
<rect x="236" y="46" width="10" height="10" rx="2" fill="#EDEDED"/>
<rect x="246" y="46" width="10" height="10" rx="2" fill="#EDEDED"/>
<rect x="266" y="46" width="10" height="10" rx="2" fill="#EDEDED"/>
<rect x="276" y="46" width="10" height="10" rx="2" fill="#EDEDED"/>
<rect x="296" y="46" width="10" height="10" rx="2" fill="#EDEDED"/>
<rect x="316" y="46" width="10" height="10" rx="2" fill="#EDEDED"/>
<rect x="326" y="46" width="10" height="10" rx="2" fill="#EDEDED"/>
<rect x="346" y="46" width="10" height="10" rx="2" fill="#EDEDED"/>
<rect x="366" y="46" width="10" height="10" rx="2" fill="#EDEDED"/>
<rect x="386" y="46" width="10" height="10" rx="2" fill="#EDEDED"/>
<rect x="406" y="46" width="10" height="10" rx="2" fill="#EDEDED"/>
<rect x="416" y="46" width="10" height="10" rx="2" fill="#EDEDED"/>
<rect x="436" y="46" width="10" height="10" rx="2" fill="#EDEDED"/>
<rect x="456" y="46" width="10" height="10" rx="2" fill="#EDEDED"/>
<rect x="476" y="46" width="10" height="10" rx="2" fill="#EDEDED"/>
<rect x="496" y="46" width="10" height="10" rx="2" fill="#EDEDED"/>
<rect x="506" y="46" width="10" height="10" rx="2" fill="#EDEDED"/>
<rect x="526" y="46" width="10" height="10" rx="2" fill="#EDEDED"/>
<rect x="546" y="46" width="10" height="10" rx="2" fill="#EDEDED"/>
<rect x="566" y="46" width="10" height="10" rx="2" fill="#EDEDED"/>
<rect x="586" y="46" width="10" height="10" rx="2" fill="#EDEDED"/>
<rect x="596" y="46" width="10" height="10" rx="2" fill="#EDEDED"/>
<rect x="616" y="46" width="10" height="10" rx="2" fill="#EDEDED"/>
<rect x="636" y="46" width="10" height="10" rx="2" fill="#EDEDED"/>
<rect x="656" y="46" width="10" height="10" rx="2" fill="#EDEDED"/>
<rect x="676" y="46" width="10" height="10" rx="2" fill="#EDEDED"/>
<rect x="696" y="46" width="10" height="10" rx="2" fill="#EDEDED"/>
<rect x="706" y="46" width="10" height="10" rx="2" fill="#EDEDED"/>
<rect x="726" y="46" width="10" height="10" rx="2" fill="#EDEDED"/>
<rect x="746" y="46" width="10" height="10" rx="2" fill="#EDEDED"/>
<rect x="756" y="46" width="10" height="10" rx="2" fill="#EDEDED"/>
<rect x="776" y="46" width="10" height="10" rx="2" fill="#EDEDED"/>
<rect x="26" y="56" width="10" height="10" rx="2" fill="#EDEDED"/>
<rect x="56" y="56" width="10" height="10" rx="2" fill="#EDEDED"/>
<rect x="66" y="56" width="10" height="10" rx="2" fill="#EDEDED"/>
<rect x="76" y="56" width="10" height="10" rx="2" fill="#EDEDED"/>
<rect x="96" y="56" width="10" height="10" rx="2" fill="#EDEDED"/>
<rect x="106" y="56" width="10" height="10" rx="2" fill="#EDEDED"/>
<rect x="116" y="56" width="10" height="10" rx="2" fill="#EDEDED"/>
<rect x="136" y="56" width="10" height="10" rx="2" fill="#EDEDED"/>
<rect x="156" y="56" width="10" height="10" rx="2" fill="#EDEDED"/>
<rect x="176" y="56" width="10" height="10" rx="2" fill="#EDEDED"/>
<rect x="196" y="56" width="10" height="10" rx="2" fill="#EDEDED"/>
<rect x="216" y="56" width="10" height="10" rx="2" fill="#EDEDED"/>
<rect x="226" y="56" width="10" height="10" rx="2" fill="#EDEDED"/>
<rect x="236" y="56" width="10" height="10" rx="2" fill="#EDEDED"/>
<rect x="256" y="56" width="10" height="10" rx="2" fill="#EDEDED"/>
<rect x="266" y="56" width="10" height="10" rx="2" fill="#EDEDED"/>
<rect x="276" y="56" width="10" height="10" rx="2" fill="#EDEDED"/>
<rect x="296" y="56" width="10" height="10" rx="2" fill="#EDEDED"/>
<rect x="336" y="56" width="10" height="10" rx="2" fill="#EDEDED"/>
<rect x="366" y="56" width="10" height="10" rx="2" fill="#EDEDED"/>
<rect x="376" y="56" width="10" height="10" rx="2" fill="#EDEDED"/>
<rect x="386" y="56" width="10" height="10" rx="2" fill="#EDEDED"/>
<rect x="406" y="56" width="10" height="10" rx="2" fill="#EDEDED"/>
<rect x="416" y="56" width="10" height="10" rx="2" fill="#EDEDED"/>
<rect x="426" y="56" width="10" height="10" rx="2" fill="#EDEDED"/>
<rect x="446" y="56" width="10" height="10" rx="2" fill="#EDEDED"/>
<rect x="466" y="56" width="10" height="10" rx="2" fill="#EDEDED"/>
<rect x="476" y="56" width="10" height="10" rx="2" fill="#EDEDED"/>
<rect x="486" y="56" width="10" height="10" rx="2" fill="#EDEDED"/>
<rect x="506" y="56" width="10" height="10" rx="2" fill="#EDEDED"/>
<rect x="526" y="56" width="10" height="10" rx="2" fill="#EDEDED"/>
<rect x="536" y="56" width="10" height="10" rx="2" fill="#EDEDED"/>
<rect x="546" y="56" width="10" height="10" rx="2" fill="#EDEDED"/>
<rect x="566" y="56" width="10" height="10" rx="2" fill="#EDEDED"/>
<rect x="586" y="56" width="10" height="10" rx="2" fill="#EDEDED"/>
<rect x="606" y="56" width="10" height="10" rx="2" fill="#EDEDED"/>
<rect x="626" y="56" width="10" height="10" rx="2" fill="#EDEDED"/>
<rect x="646" y="56" width="10" height="10" rx="2" fill="#EDEDED"/>
<rect x="666" y="56" width="10" height="10" rx="2" fill="#EDEDED"/>
<rect x="686" y="56" width="10" height="10" rx="2" fill="#EDEDED"/>
<rect x="696" y="56" width="10" height="10" rx="2" fill="#EDEDED"/>
<rect x="706" y="56" width="10" height="10" rx="2" fill="#EDEDED"/>
<rect x="726" y="56" width="10" height="10" rx="2" fill="#EDEDED"/>
<rect x="746" y="56" width="10" height="10" rx="2" fill="#EDEDED"/>
<rect x="766" y="56" width="10" height="10" rx="2" fill="#EDEDED"/>
<rect x="786" y="56" width="10" height="10" rx="2" fill="#EDEDED"/>
<rect x="26" y="66" width="10" height="10" rx="2" fill="#EDEDED"/>
<rect x="36" y="66" width="10" height="10" rx="2" fill="#EDEDED"/>
<rect x="46" y="66" width="10" height="10" rx="2" fill="#EDEDED"/>
<rect x="86" y="66" width="10" height="10" rx="2" fill="#EDEDED"/>
<rect x="96" y="66" width="10" height="10" rx="2" fill="#EDEDED"/>
<rect x="106" y="66" width="10" height="10" rx="2" fill="#EDEDED"/>
<rect x="116" y="66" width="10" height="10" rx="2" fill="#EDEDED"/>
<rect x="126" y="66" width="10" height="10" rx="2" fill="#EDEDED"/>
<rect x="136" y="66" width="10" height="10" rx="2" fill="#EDEDED"/>
<rect x="146" y="66" width="10" height="10" rx="2" fill="#EDEDED"/>
<rect x="156" y="66" width="10" height="10" rx="2" fill="#EDEDED"/>
<rect x="176" y="66" width="10" height="10" rx="2" fill="#EDEDED"/>
<rect x="186" y="66" width="10" height="10" rx="2" fill="#EDEDED"/>
<rect x="196" y="66" width="10" height="10" rx="2" fill="#EDEDED"/>
<rect x="206" y="66" width="10" height="10" rx="2" fill="#EDEDED"/>
<rect x="216" y="66" width="10" height="10" rx="2" fill="#EDEDED"/>
<rect x="226" y="66" width="10" height="10" rx="2" fill="#EDEDED"/>
<rect x="236" y="66" width="10" height="10" rx="2" fill="#EDEDED"/>
<rect x="246" y="66" width="10" height="10" rx="2" fill="#EDEDED"/>
<rect x="256" y="66" width="10" height="10" rx="2" fill="#EDEDED"/>
<rect x="266" y="66" width="10" height="10" rx="2" fill="#EDEDED"/>
<rect x="276" y="66" width="10" height="10" rx="2" fill="#EDEDED"/>
<rect x="286" y="66" width="10" height="10" rx="2" fill="#EDEDED"/>
<rect x="296" y="66" width="10" height="10" rx="2" fill="#EDEDED"/>
<rect x="306" y="66" width="10" height="10" rx="2" fill="#EDEDED"/>
<rect x="316" y="66" width="10" height="10" rx="2" fill="#EDEDED"/>
<rect x="326" y="66" width="10" height="10" rx="2" fill="#EDEDED"/>
<rect x="336" y="66" width="10" height="10" rx="2" fill="#EDEDED"/>
<rect x="346" y="66" width="10" height="10" rx="2" fill="#EDEDED"/>
<rect x="356" y="66" width="10" height="10" rx="2" fill="#EDEDED"/>
<rect x="366" y="66" width="10" height="10" rx="2" fill="#EDEDED"/>
<rect x="376" y="66" width="10" height="10" rx="2" fill="#EDEDED"/>
<rect x="386" y="66" width="10" height="10" rx="2" fill="#EDEDED"/>
<rect x="396" y="66" width="10" height="10" rx="2" fill="#EDEDED"/>
<rect x="406" y="66" width="10" height="10" rx="2" fill="#EDEDED"/>
<rect x="416" y="66" width="10" height="10" rx="2" fill="#EDEDED"/>
<rect x="426" y="66" width="10" height="10" rx="2" fill="#EDEDED"/>
<rect x="436" y="66" width="10" height="10" rx="2" fill="#EDEDED"/>
<rect x="456" y="66" width="10" height="10" rx="2" fill="#EDEDED"/>
<rect x="466" y="66" width="10" height="10" rx="2" fill="#EDEDED"/>
<rect x="476" y="66" width="10" height="10" rx="2" fill="#EDEDED"/>
<rect x="486" y="66" width="10" height="10" rx="2" fill="#EDEDED"/>
<rect x="496" y="66" width="10" height="10" rx="2" fill="#EDEDED"/>
<rect x="516" y="66" width="10" height="10" rx="2" fill="#EDEDED"/>
<rect x="526" y="66" width="10" height="10" rx="2" fill="#EDEDED"/>
<rect x="536" y="66" width="10" height="10" rx="2" fill="#EDEDED"/>
<rect x="546" y="66" width="10" height="10" rx="2" fill="#EDEDED"/>
<rect x="566" y="66" width="10" height="10" rx="2" fill="#EDEDED"/>
<rect x="576" y="66" width="10" height="10" rx="2" fill="#EDEDED"/>
<rect x="586" y="66" width="10" height="10" rx="2" fill="#EDEDED"/>
<rect x="606" y="66" width="10" height="10" rx="2" fill="#EDEDED"/>
<rect x="616" y="66" width="10" height="10" rx="2" fill="#EDEDED"/>
<rect x="626" y="66" width="10" height="10" rx="2" fill="#EDEDED"/>
<rect x="646" y="66" width="10" height="10" rx="2" fill="#EDEDED"/>
<rect x="656" y="66" width="10" height="10" rx="2" fill="#EDEDED"/>
<rect x="666" y="66" width="10" height="10" rx="2" fill="#EDEDED"/>
<rect x="676" y="66" width="10" height="10" rx="2" fill="#EDEDED"/>
<rect x="686" y="66" width="10" height="10" rx="2" fill="#EDEDED"/>
<rect x="696" y="66" width="10" height="10" rx="2" fill="#EDEDED"/>
<rect x="706" y="66" width="10" height="10" rx="2" fill="#EDEDED"/>
<rect x="716" y="66" width="10" height="10" rx="2" fill="#EDEDED"/>
<rect x="726" y="66" width="10" height="10" rx="2" fill="#EDEDED"/>
<rect x="736" y="66" width="10" height="10" rx="2" fill="#EDEDED"/>
<rect x="746" y="66" width="10" height="10" rx="2" fill="#EDEDED"/>
<rect x="766" y="66" width="10" height="10" rx="2" fill="#EDEDED"/>
<rect x="776" y="66" width="10" height="10" rx="2" fill="#EDEDED"/>
<rect x="786" y="66" width="10" height="10" rx="2" fill="#EDEDED"/>
<rect x="516" y="76" width="10" height="10" rx="2" fill="#EDEDED"/>
<rect x="526" y="76" width="10" height="10" rx="2" fill="#EDEDED"/>
<rect x="536" y="76" width="10" height="10" rx="2" fill="#EDEDED"/>
<rect x="546" y="76" width="10" height="10" rx="2" fill="#EDEDED"/>
<rect x="556" y="76" width="10" height="10" rx="2" fill="#EDEDED"/>
<rect x="86" y="86" width="10" height="10" rx="2" fill="#EDEDED"/>
<rect x="96" y="86" width="10" height="10" rx="2" fill="#EDEDED"/>
<rect x="106" y="86" width="10" height="10" rx="2" fill="#EDEDED"/>
<rect x="76" y="96" width="10" height="10" rx="2" fill="#EDEDED"/>
<rect x="96" y="96" width="10" height="10" rx="2" fill="#EDEDED"/>
<rect x="116" y="96" width="10" height="10" rx="2" fill="#EDEDED"/>
<rect x="76" y="106" width="10" height="10" rx="2" fill="#EDEDED"/>
<rect x="96" y="106" width="10" height="10" rx="2" fill="#EDEDED"/>
<rect x="116" y="106" width="10" height="10" rx="2" fill="#EDEDED"/>
<rect x="66" y="116" width="10" height="10" rx="2" fill="#EDEDED"/>
<rect x="86" y="116" width="10" height="10" rx="2" fill="#EDEDED"/>
<rect x="96" y="116" width="10" height="10" rx="2" fill="#EDEDED"/>
<rect x="106" y="116" width="10" height="10" rx="2" fill="#EDEDED"/>
<rect x="126" y="116" width="10" height="10" rx="2" fill="#EDEDED"/>
<rect x="36" y="126" width="10" height="10" rx="2" fill="#EDEDED"/>
<rect x="46" y="126" width="10" height="10" rx="2" fill="#EDEDED"/>
<rect x="56" y="126" width="10" height="10" rx="2" fill="#EDEDED"/>
<rect x="66" y="126" width="10" height="10" rx="2" fill="#EDEDED"/>
<rect x="76" y="126" width="10" height="10" rx="2" fill="#EDEDED"/>
<rect x="86" y="126" width="10" height="10" rx="2" fill="#EDEDED"/>
<rect x="96" y="126" width="10" height="10" rx="2" fill="#EDEDED"/>
<rect x="106" y="126" width="10" height="10" rx="2" fill="#EDEDED"/>
<rect x="116" y="126" width="10" height="10" rx="2" fill="#EDEDED"/>
<rect x="26" y="136" width="10" height="10" rx="2" fill="#EDEDED"/>
<rect x="36" y="136" width="10" height="10" rx="2" fill="#EDEDED"/>
<rect x="46" y="136" width="10" height="10" rx="2" fill="#EDEDED"/>
<rect x="56" y="136" width="10" height="10" rx="2" fill="#EDEDED"/>
<rect x="66" y="136" width="10" height="10" rx="2" fill="#EDEDED"/>
<rect x="76" y="136" width="10" height="10" rx="2" fill="#EDEDED"/>
<rect x="86" y="136" width="10" height="10" rx="2" fill="#EDEDED"/>
</svg>